<?xml version="1.0" encoding="utf-8"?>
<!-- Generator: Adobe Illustrator 22.0.1, SVG Export Plug-In . SVG Version: 6.00 Build 0)  -->
<svg version="1.1" id="Capa_1" xmlns="http://www.w3.org/2000/svg" xmlns:xlink="http://www.w3.org/1999/xlink" x="0px" y="0px"
	 viewBox="0 0 512 512" style="enable-background:new 0 0 512 512;" xml:space="preserve">
<style type="text/css">
	.st0{fill:#F44336;}
	.st1{fill:#FAFAFA;}
</style>
<g>
	<path class="st0" d="M262.2,368.2c-40.2,0-72.8,31.9-72.8,71.3s32.6,71.3,72.8,71.3s72.8-31.9,72.8-71.3
		C335,400.2,302.4,368.3,262.2,368.2z"/>
	<path class="st1" d="M303,413.2c-0.6-1-1.6-1.6-2.8-1.6h-76c-1.7,0-3.2,1.4-3.2,3.1c0,0.6,0.2,1.1,0.5,1.6l38,62
		c0.9,1.5,2.8,1.9,4.3,1.1c0.4-0.3,0.8-0.6,1.1-1.1l38-62C303.5,415.4,303.5,414.2,303,413.2z"/>
</g>
</svg>
