<?xml version="1.0" encoding="utf-8"?>
<svg xmlns="http://www.w3.org/2000/svg" xmlns:xlink="http://www.w3.org/1999/xlink" style="margin: auto; background-color: rgb(255, 255, 255); display: block; shape-rendering: auto; background-position: initial initial; background-repeat: initial initial;" width="200px" height="200px" viewBox="0 0 100 100" preserveAspectRatio="xMidYMid">
<g id="Taxi-Clock-Transport-Car-Time"><path d="m41 6a14 14 0 1 0 14 14 14.015 14.015 0 0 0 -14-14zm0 26a12 12 0 1 1 12-12 12.013 12.013 0 0 1 -12 12z"/><path d="m40 9h2v2h-2z"/><path d="m32.929 11.929h2v2h-2z" transform="matrix(.707 -.707 .707 .707 .796 27.778)"/><path d="m30 19h2v2h-2z"/><path d="m32.929 26.071h2v2h-2z" transform="matrix(.707 -.707 .707 .707 -9.205 31.92)"/><path d="m40 29h2v2h-2z"/><path d="m47.071 26.071h2v2h-2z" transform="matrix(.707 -.707 .707 .707 -5.063 41.921)"/><path d="m50 19h2v2h-2z"/><path d="m47.071 11.929h2v2h-2z" transform="matrix(.707 -.707 .707 .707 4.938 37.778)"/><path d="m47 21v-2h-3.184a3 3 0 0 0 -1.816-1.816v-4.184h-2v4.184a2.993 2.993 0 1 0 3.816 3.816zm-6 0a1 1 0 1 1 1-1 1 1 0 0 1 -1 1z"/><path d="m41 2a18 18 0 1 0 18 18 18.021 18.021 0 0 0 -18-18zm0 34a16 16 0 1 1 16-16 16.019 16.019 0 0 1 -16 16z"/><path d="m20 52h10v2h-10z"/><path d="m20 48h10v2h-10z"/><path d="m37 48a3 3 0 1 0 3 3 3 3 0 0 0 -3-3zm0 4a1 1 0 1 1 1-1 1 1 0 0 1 -1 1z"/><path d="m13 48a3 3 0 1 0 3 3 3 3 0 0 0 -3-3zm0 4a1 1 0 1 1 1-1 1 1 0 0 1 -1 1z"/><path d="m45 43a3.009 3.009 0 0 0 -3-3 2.942 2.942 0 0 0 -1.62.49l-.32-.84-1.87.7 1.37 3.65h-17.7a3.983 3.983 0 0 0 -7.72 0h-3.7l2.25-6h17.31v-2h-16.72l.5-2h11.22v-2h-4v-2h2v-2h-3a1 1 0 0 0 -1 1v3h-5.22a1.99 1.99 0 0 0 -1.94 1.52l-.8 3.18-1.42 3.79a2.918 2.918 0 0 0 -1.62-.49 3 3 0 0 0 -1.6 5.53 2.942 2.942 0 0 0 -.4 1.47v13a2.006 2.006 0 0 0 2 2h4a2.006 2.006 0 0 0 2-2v-2h22v2a2.006 2.006 0 0 0 2 2h4a2.006 2.006 0 0 0 2-2v-13a2.942 2.942 0 0 0 -.4-1.47 2.983 2.983 0 0 0 1.4-2.53zm-27 0a2 2 0 0 1 1.72 1h-3.44a2 2 0 0 1 1.72-1zm-11 0a1 1 0 0 1 1-1 .973.973 0 0 1 .86.51l-.53 1.43a.96.96 0 0 1 -.33.06 1 1 0 0 1 -1-1zm5 17h-4v-2.18a3 3 0 0 0 1 .18h3zm30 0h-4v-2h3a3 3 0 0 0 1-.18zm0-5a1 1 0 0 1 -1 1h-32a1 1 0 0 1 -1-1v-8a1 1 0 0 1 1-1h32a1 1 0 0 1 1 1zm0-11a.96.96 0 0 1 -.33-.06l-.53-1.42a.982.982 0 0 1 .86-.52 1 1 0 0 1 0 2z"/>

  <animate attributeName="cy" dur="1s" repeatCount="indefinite" calcMode="spline" keySplines="0.45 0 0.9 0.55;0 0.45 0.55 0.9" keyTimes="0;0.5;1" values="23;77;23"></animate>

</g>
<!-- [ldio] generated by https://loading.io/ --></svg>