<?xml version="1.0" encoding="utf-8"?>
<!-- Generator: Adobe Illustrator 22.0.1, SVG Export Plug-In . SVG Version: 6.00 Build 0)  -->
<svg version="1.1" id="Capa_1" xmlns="http://www.w3.org/2000/svg" xmlns:xlink="http://www.w3.org/1999/xlink" x="0px" y="0px"
	 viewBox="0 0 512 512" style="enable-background:new 0 0 512 512;" xml:space="preserve">
<style type="text/css">
	.st0{fill:#FEDB41;}
	.st1{fill:#FFCC33;}
	.st2{fill:#FEA832;}
	.st3{fill:#FE9923;}
	.st4{fill:#FFE600;}
	.st5{font-family:'Arial-Black';}
	.st6{font-size:186.0625px;}
</style>
<path class="st0" d="M257,0C116.3,0,0,114.3,0,255s116.3,257,257,257s255-116.3,255-257S397.7,0,257,0z"/>
<path class="st1" d="M512,255c0,140.7-114.3,257-255,257V0C397.7,0,512,114.3,512,255z"/>
<path class="st2" d="M257,60C149.6,60,60,147.6,60,255s89.6,197,197,197s195-89.6,195-197S364.4,60,257,60z"/>
<path class="st3" d="M452,255c0,107.4-87.6,197-195,197V60C364.4,60,452,147.6,452,255z"/>
<text transform="matrix(0.6424 0 0 1 84.0078 317.9453)" class="st4 st5 st6">Mena</text>
</svg>
