<?xml version="1.0" encoding="utf-8"?>
<!-- Generator: Adobe Illustrator 22.0.1, SVG Export Plug-In . SVG Version: 6.00 Build 0)  -->
<svg version="1.1" id="Capa_1" xmlns="http://www.w3.org/2000/svg" xmlns:xlink="http://www.w3.org/1999/xlink" x="0px" y="0px"
	 viewBox="0 0 500 500" style="enable-background:new 0 0 486.2 486.2;" xml:space="preserve">
<g>
	<path d="M404.5,478.1H81.7c-24.1,0-43.7-20.3-43.7-45.1V195.4c0-8.7,6.8-15.7,15.2-15.7s15.2,7,15.2,15.7v237.5
		c0,7.6,6,13.7,13.3,13.7h322.9c7.3,0,13.3-6.2,13.3-13.7V195.4c0-8.7,6.8-15.7,15.2-15.7c8.4,0,15.2,7,15.2,15.7v237.5
		C448.2,457.8,428.6,478.1,404.5,478.1z"/>
	<path d="M471,250.4c-3.9,0-7.8-1.5-10.7-4.6l-189-195.3c-15.5-16.1-40.9-16.1-56.4,0l-189,195.3c-5.9,6.1-15.6,6.1-21.5,0
		c-5.9-6.1-5.9-16.1,0-22.2l189-195.3c27.4-28.3,72-28.3,99.4,0l189,195.3c5.9,6.1,5.9,16.1,0,22.2
		C478.8,248.8,474.9,250.4,471,250.4L471,250.4z"/>
	<path d="M303.9,478.1H182.3c-8.4,0-15.2-7-15.2-15.7V323c0-27.1,21.3-49.1,47.5-49.1h57c26.2,0,47.5,22,47.5,49.1v139.4
		C319.1,471,312.3,478.1,303.9,478.1z M197.5,446.7h91.2V323c0-9.7-7.7-17.7-17.1-17.7h-57c-9.4,0-17.1,7.9-17.1,17.7V446.7z"/>
</g>
</svg>
