<?xml version="1.0" encoding="utf-8"?>
<!-- Generator: Adobe Illustrator 22.0.1, SVG Export Plug-In . SVG Version: 6.00 Build 0)  -->
<svg version="1.1" id="Capa_1" xmlns="http://www.w3.org/2000/svg" xmlns:xlink="http://www.w3.org/1999/xlink" x="0px" y="0px"
	 viewBox="-30 0 530 490" style="enable-background:new 0 0 590 590;" xml:space="preserve">
<style type="text/css">
	.st0{stroke:#000000;stroke-width:7;stroke-miterlimit:10;}
</style>
<path d="M404.5,478.1H81.7C57.6,478.1,38,457.8,38,433V195.4c0-8.7,6.8-15.7,15.2-15.7s15.2,7,15.2,15.7v237.5
	c0,7.6,6,13.7,13.3,13.7h322.9c7.3,0,13.3-6.2,13.3-13.7V195.4c0-8.7,6.8-15.7,15.2-15.7c8.4,0,15.2,7,15.2,15.7v237.5
	C448.2,457.8,428.6,478.1,404.5,478.1z"/>
<path class="st0" d="M430.4,207c-3.2,0-6.4-1.2-8.8-3.8L266.2,43.5c-12.8-13.2-33.6-13.2-46.4,0L64.3,203.2c-4.9,5-12.8,5-17.7,0
	c-4.9-5-4.9-13.2,0-18.2L202.1,25.4c22.5-23.1,59.2-23.1,81.8,0l155.5,159.7c4.9,5,4.9,13.2,0,18.2C436.9,205.7,433.7,207,430.4,207
	L430.4,207z"/>
<path d="M293.6,456H192.4c-7,0-12.6-5.3-12.6-11.9V338.3c0-20.6,17.7-37.3,39.5-37.3h47.4c21.8,0,39.5,16.7,39.5,37.3v105.8
	C306.2,450.6,300.6,456,293.6,456z M205,432.2h75.9v-93.9c0-7.4-6.4-13.4-14.2-13.4h-47.4c-7.8,0-14.2,6-14.2,13.4V432.2z"/>
</svg>
