<?xml version="1.0" encoding="utf-8"?>
<!-- Generator: Adobe Illustrator 22.0.1, SVG Export Plug-In . SVG Version: 6.00 Build 0)  -->
<svg version="1.1" id="Capa_1" xmlns="http://www.w3.org/2000/svg" xmlns:xlink="http://www.w3.org/1999/xlink" x="0px" y="0px"
	 viewBox="0 0 512 512" style="enable-background:new 0 0 512 512;" xml:space="preserve">
<style type="text/css">
	.st0{fill:#E0DFD9;}
</style>
<g>
	<g>
		<path class="st0" d="M395.5,213.4c-9.9,0-18,8.1-18,18c0,10.4-7.3,19.1-17.1,21.2V99.1c0-6.7-3.7-12.8-9.6-15.9
			s-13.1-2.7-18.6,1.1c-80.7,55.8-126.6,62.9-157.5,62.9h-79c-46.4,0-84.1,37.7-84.1,84.1c0,46.5,37.7,84.3,84.1,84.3H117v106.5
			c0,9.9,8.1,18,18,18s18-8.1,18-18V297.6V183.3h21.7c32.2,0,77.6-6.2,149.8-50.8v190.6c-25.8-18.4-68-39-129.4-42.9
			c-9.9-0.6-18.5,6.9-19.1,16.8s6.9,18.5,16.8,19.1c39.7,2.5,74.5,13,103.4,31.4c21,13.3,31.1,26.1,31.7,26.9
			c3.4,4.8,8.8,7.4,14.5,7.4c1.9,0,3.7-0.3,5.6-0.9c7.4-2.4,12.4-9.4,12.4-17.2v-74.8c29.7-2.3,53.1-27.2,53.1-57.5
			C413.5,221.5,405.4,213.4,395.5,213.4z M117,279.6H95.7c-26.5,0-48.1-21.6-48.1-48.1c0-26.6,21.6-48.2,48.1-48.2H117
			C117,183.3,117,279.6,117,279.6z"/>
	</g>
</g>
<g>
	<g>
		<path class="st0" d="M482.4,213.4h-44.7c-9.9,0-18,8.1-18,18s8.1,18,18,18h44.7c9.9,0,18-8.1,18-18
			C500.4,221.5,492.3,213.4,482.4,213.4z"/>
	</g>
</g>
<g>
	<g>
		<path class="st0" d="M492.8,159.4c-3.1-9.3-13.4-14.4-22.8-11.2L426.7,163c-9.4,3.2-14.4,13.4-11.2,22.8c2.6,7.5,9.5,12.2,17,12.2
			c1.9,0,3.9-0.3,5.8-1l43.3-14.8C491,179,496,168.8,492.8,159.4z"/>
	</g>
</g>
<g>
	<g>
		<path class="st0" d="M481.6,280.6l-43.3-14.8c-9.4-3.2-19.6,1.8-22.8,11.2c-3.2,9.4,1.8,19.6,11.2,22.8l43.3,14.8
			c1.9,0.7,3.9,1,5.8,1c7.5,0,14.5-4.7,17-12.2C496.1,294,491,283.8,481.6,280.6z"/>
	</g>
</g>
</svg>
