<?xml version="1.0" encoding="utf-8"?>
<!-- Generator: Adobe Illustrator 22.0.1, SVG Export Plug-In . SVG Version: 6.00 Build 0)  -->
<svg version="1.1" id="Capa_1" xmlns="http://www.w3.org/2000/svg" xmlns:xlink="http://www.w3.org/1999/xlink" x="0px" y="0px"
	 viewBox="0 0 512 512" style="enable-background:new 0 0 512 512;" xml:space="preserve">
<style type="text/css">
	.st0{fill:#E0DFD9;}
</style>
<g>
	<g>
		<path class="st0" d="M432.6,88.3C387.9,43.6,328.6,19,265.4,19S142.9,43.6,98.2,88.3C11.8,174.7,5.8,313,83.3,406.3
			c-7.6,15.3-19.8,33.1-37.9,42c-8.7,4.3-13.6,13.6-12.1,23.2c1.5,9.6,8.9,17.1,18.5,18.6c4.5,0.7,10.9,1.4,18.7,1.4
			c20.9,0,51.7-4.9,83.2-27.6c35.1,18.9,73.5,28.1,111.6,28.1c61.2,0,121.8-23.7,167.4-69.3c44.7-44.7,69.3-104,69.3-167.2
			S477.3,133,432.6,88.3z M413.5,403.6c-67.5,67.5-172,80.9-254.2,32.6c-5.4-3.2-12.1-2.2-16.4,2.1c-0.4,0.2-0.8,0.5-1.1,0.8
			c-27.1,21-53.7,25.4-71.3,25.4h-0.1c20.3-14.8,33.1-36.8,40.6-53.9c1.2-2.9,1.4-5.9,0.7-8.7c-0.3-2.7-1.4-5.4-3.3-7.6
			c-73.2-82.7-69.4-208.7,8.8-286.9c81.7-81.7,214.6-81.7,296.2,0C495.2,189.1,495.2,321.9,413.5,403.6z"/>
		<circle class="st0" cx="265.4" cy="255.5" r="16.6"/>
		<circle class="st0" cx="351" cy="255.5" r="16.6"/>
		<circle class="st0" cx="179.8" cy="255.5" r="16.6"/>
	</g>
</g>
</svg>
