<?xml version="1.0" encoding="utf-8"?>
<!-- Generator: Adobe Illustrator 22.0.1, SVG Export Plug-In . SVG Version: 6.00 Build 0)  -->
<svg version="1.1" id="Capa_1" xmlns="http://www.w3.org/2000/svg" xmlns:xlink="http://www.w3.org/1999/xlink" x="0px" y="0px"
	 viewBox="0 0 512 512" style="enable-background:new 0 0 512 512;" xml:space="preserve">
<style type="text/css">
	.st0{fill:url(#SVGID_1_);}
	.st1{fill:url(#SVGID_2_);}
	.st2{fill:url(#SVGID_3_);}
	.st3{fill:url(#SVGID_4_);}
	.st4{fill:#FFFFFF;}
	.st5{fill:url(#SVGID_5_);}
</style>
<linearGradient id="SVGID_1_" gradientUnits="userSpaceOnUse" x1="210.2926" y1="372.1913" x2="210.2926" y2="652.8113" gradientTransform="matrix(1.0667 0 0 1.0667 31.6809 -253.2213)">
	<stop  offset="0" style="stop-color:#D63305"/>
	<stop  offset="0.366" style="stop-color:#CF3004"/>
	<stop  offset="0.899" style="stop-color:#BC2602"/>
	<stop  offset="1" style="stop-color:#B72401"/>
</linearGradient>
<circle class="st0" cx="256" cy="256" r="256"/>
<radialGradient id="SVGID_2_" cx="210.2926" cy="477.3801" r="240.2191" gradientTransform="matrix(1.0667 0 0 1.0667 31.6809 -253.2213)" gradientUnits="userSpaceOnUse">
	<stop  offset="1.000000e-04" style="stop-color:#D63305;stop-opacity:0"/>
	<stop  offset="1" style="stop-color:#960000"/>
</radialGradient>
<circle class="st1" cx="256" cy="256" r="195.8"/>
<linearGradient id="SVGID_3_" gradientUnits="userSpaceOnUse" x1="296.6529" y1="449.6784" x2="187.0729" y2="340.0984" gradientTransform="matrix(1.0667 0 0 1.0667 31.6809 -253.2213)">
	<stop  offset="1.000000e-04" style="stop-color:#D63305;stop-opacity:0"/>
	<stop  offset="1" style="stop-color:#960000"/>
</linearGradient>
<path class="st2" d="M451.5,267.8L266,82.4c-2.2-3.2-5.9-5.2-10-5.2c-6.8,0-12.2,5.5-12.2,12.2v89.9c0,4.1,2.1,7.8,5.2,10
	l172.1,172.1C438.6,334.1,449.4,302.1,451.5,267.8z"/>
<linearGradient id="SVGID_4_" gradientUnits="userSpaceOnUse" x1="335.2286" y1="602.2627" x2="114.7686" y2="381.7927" gradientTransform="matrix(1.0667 0 0 1.0667 31.6809 -253.2213)">
	<stop  offset="1.000000e-04" style="stop-color:#D63305;stop-opacity:0"/>
	<stop  offset="1" style="stop-color:#960000"/>
</linearGradient>
<path class="st3" d="M451.8,256c0-6.1-0.3-12.1-0.8-18l-86.8-86.8c-15.3-15.8-34-28.2-54.9-36.2c-8-3-16.6,2.9-16.6,11.5v0
	c0,4.2,2.1,8,5.5,10.2l76.8,77.1c4.7,13.1,7.2,27.2,7.3,41.8c0,9-0.9,17.7-2.7,26.2c-0.3-0.2-162.3-162.1-162.3-162.1
	c-3-4.5-8.9-6.8-14.5-4.7c-57.9,22-98.9,78.6-97.4,144.4c0.9,40.9,18.3,77.9,45.8,104.6l87,87c5.9,0.5,11.8,0.8,17.9,0.8
	C364.2,451.8,451.8,364.2,451.8,256z"/>
<path class="st4" d="M292.7,126.5L292.7,126.5c0,5.1,3.1,9.6,7.8,11.4c47.6,18,81.5,64,81.7,117.7c0.2,69.2-56.1,126.1-125.3,126.6
	c-70.1,0.5-127.2-56.3-127.2-126.2c0-53.9,33.9-100,81.5-118.1c4.8-1.8,8-6.4,8-11.5l0,0c0-8.6-8.6-14.5-16.6-11.5
	c-57.9,22-98.9,78.6-97.4,144.4c1.8,81.1,68.4,146.7,149.5,147.3c83.6,0.6,151.9-67.2,151.9-150.7c0-64.4-40.5-119.4-97.4-141
	C301.3,112,292.7,117.9,292.7,126.5z"/>
<linearGradient id="SVGID_5_" gradientUnits="userSpaceOnUse" x1="407.0266" y1="674.0347" x2="230.4267" y2="497.4446" gradientTransform="matrix(1.0667 0 0 1.0667 31.6809 -253.2213)">
	<stop  offset="1.000000e-04" style="stop-color:#D63305;stop-opacity:0"/>
	<stop  offset="1" style="stop-color:#960000"/>
</linearGradient>
<path class="st5" d="M451.8,256c0,108.2-87.7,195.8-195.8,195.8c-6,0-12-0.3-17.9-0.8l-86.5-86.5c26.9,25.9,63.3,41.9,103.2,42.2
	c83.6,0.6,151.9-67.2,151.9-150.7c0-41.2-16.6-78.6-43.6-105.9c0.3,0.3,0.7,0.7,1,1L451,238C451.5,243.9,451.8,249.9,451.8,256z"/>
<path class="st4" d="M256,191.5c-6.8,0-12.2-5.5-12.2-12.2V89.4c0-6.8,5.5-12.2,12.2-12.2c6.8,0,12.2,5.5,12.2,12.2v89.9
	C268.2,186,262.8,191.5,256,191.5z"/>
</svg>
